<svg viewBox="0 0 128 128" xmlns="http://www.w3.org/2000/svg" fill="none">
  <rect x="4" y="4" width="120" height="120" rx="30" fill="#08111f" stroke="#1e293b" stroke-width="2.5"/>

  <path
    d="M99 26H59C36.356 26 18 44.356 18 67s18.356 41 41 41h40"
    fill="#0f1c31"
    stroke="#24364f"
    stroke-width="3"
    transform="translate(0 -4)"
  />

  <path
    d="M88 30H60c-18.225 0-33 14.775-33 33s14.775 33 33 33h28c7.18 0 13-5.82 13-13V43c0-7.18-5.82-13-13-13Z"
    fill="#12b981"
  />

  <path
    d="M88 30H60c-18.225 0-33 14.775-33 33s14.775 33 33 33h28c7.18 0 13-5.82 13-13V43c0-7.18-5.82-13-13-13Z"
    fill="url(#condhub-gradient)"
    fill-opacity="0.94"
  />

  <path
    d="M85 40H60c-12.703 0-23 10.297-23 23s10.297 23 23 23h25c3.866 0 7-3.134 7-7V47c0-3.866-3.134-7-7-7Z"
    fill="#08111f"
  />

  <rect x="66" y="52" width="8" height="8" rx="2.2" fill="#dffcf3"/>
  <rect x="78" y="52" width="8" height="8" rx="2.2" fill="#dffcf3"/>
  <rect x="66" y="64" width="8" height="8" rx="2.2" fill="#dffcf3"/>
  <rect x="78" y="64" width="8" height="8" rx="2.2" fill="#dffcf3"/>

  <path
    d="M40 63c0-10.493 8.507-19 19-19h8.5v7.5H59c-6.351 0-11.5 5.149-11.5 11.5S52.649 74.5 59 74.5h8.5V82H59c-10.493 0-19-8.507-19-19Z"
    fill="#34d399"
  />

  <defs>
    <linearGradient id="condhub-gradient" x1="34" y1="34" x2="104" y2="98" gradientUnits="userSpaceOnUse">
      <stop stop-color="#34d399"/>
      <stop offset="1" stop-color="#12b981"/>
    </linearGradient>
  </defs>
</svg>